<?xml version="1.0" encoding="UTF-8" standalone="no"?>
<!DOCTYPE svg PUBLIC "-//W3C//DTD SVG 1.1//EN" "http://www.w3.org/Graphics/SVG/1.1/DTD/svg11.dtd">
<svg width="100%" height="100%" viewBox="0 0 5498 1905" version="1.1" xmlns="http://www.w3.org/2000/svg" xmlns:xlink="http://www.w3.org/1999/xlink" xml:space="preserve" xmlns:serif="http://www.serif.com/" style="fill-rule:evenodd;clip-rule:evenodd;stroke-linejoin:round;stroke-miterlimit:2;">
    <g id="Artboard2" transform="matrix(1.0139,0,0,1.05098,-1042.46,-3458.33)">
        <rect x="1028.17" y="3290.58" width="5422.3" height="1812.52" style="fill:none;"/>
        <g transform="matrix(4.10956,0,0,3.96456,-168.327,471.644)">
            <g transform="matrix(0.97791,0,0,1,17.5516,0)">
                <g transform="matrix(288,0,0,288,794.543,1023.41)">
                    <path d="M0.093,-0L0.093,-0.723L0.498,-0.723L0.498,-0.645L0.196,-0.645L0.196,-0L0.093,-0Z" style="fill:rgb(0,82,141);fill-rule:nonzero;"/>
                </g>
            </g>
            <g transform="matrix(0.97791,0,0,1,20.0481,0)">
                <rect x="928.37" y="929.755" width="124.875" height="20.813" style="fill:rgb(0,82,141);fill-rule:nonzero;stroke:rgb(0,82,141);stroke-width:2.02px;"/>
                <path d="M1158.79,1026.93C1136.94,1026.93 1119.51,1019.68 1106.48,1005.2C1093.44,990.716 1086.93,971.333 1086.93,947.051C1086.93,922.489 1093.47,903.059 1106.55,888.762C1119.62,874.466 1137.37,867.317 1159.77,867.317C1182.18,867.317 1199.92,874.466 1213,888.762C1226.08,903.059 1232.62,922.395 1232.62,946.77C1232.62,971.708 1226.05,991.301 1212.93,1005.55C1199.8,1019.8 1181.76,1026.93 1158.79,1026.93ZM1159.21,1006.11C1188.55,1006.11 1203.23,986.333 1203.23,946.77C1203.23,907.676 1188.74,888.13 1159.77,888.13C1130.9,888.13 1116.46,907.77 1116.46,947.051C1116.46,986.426 1130.71,1006.11 1159.21,1006.11Z" style="fill:rgb(0,82,141);fill-rule:nonzero;stroke:rgb(0,82,141);stroke-width:2.02px;"/>
            </g>
            <g transform="matrix(0.97791,0,0,1,27.345,0)">
                <path d="M1283.87,901.63C1291.93,888.505 1301.54,878.614 1312.7,871.958C1323.85,865.301 1334.12,861.973 1343.49,861.973C1356.62,861.973 1368.43,867.645 1378.93,878.989C1389.43,890.333 1394.68,907.536 1394.68,930.598C1394.68,948.786 1391.19,965.028 1384.2,979.325C1377.22,993.622 1367.91,1004.92 1356.29,1013.22C1344.66,1021.51 1330.27,1025.66 1313.12,1025.66C1308.24,1025.66 1300.74,1025.14 1290.62,1024.11C1289.12,1023.93 1286.87,1023.69 1283.87,1023.41L1283.87,1084.44L1257.71,1084.44L1257.71,866.333L1283.87,866.333L1283.87,901.63ZM1283.87,932.708L1283.87,1000.07C1293.34,1002.5 1302.06,1003.72 1310.02,1003.72C1325.87,1003.72 1339.2,997.512 1350.03,985.091C1360.86,972.669 1366.27,955.676 1366.27,934.114C1366.27,918.458 1363.32,906.692 1357.41,898.817C1351.51,890.942 1344.81,887.005 1337.31,887.005C1329.15,887.005 1320.17,891.13 1310.38,899.38C1300.58,907.63 1291.74,918.739 1283.87,932.708Z" style="fill:rgb(0,82,141);fill-rule:nonzero;stroke:rgb(0,82,141);stroke-width:2.02px;"/>
                <path d="M1549.45,1017.08C1537.17,1022.24 1528.26,1025.31 1522.73,1026.29C1517.2,1027.28 1511.86,1027.77 1506.7,1027.77C1495.73,1027.77 1485.7,1025.66 1476.61,1021.44C1467.51,1017.22 1460.65,1010.99 1456.01,1002.74C1451.37,994.489 1449.05,981.739 1449.05,964.489L1449.05,901.208L1409.81,901.208L1409.81,879.411L1449.05,879.411L1449.05,816.13L1475.2,816.13L1475.2,879.411L1545.09,879.411L1545.09,901.208L1475.2,901.208L1475.2,964.067C1475.2,976.723 1476.7,985.653 1479.7,990.856C1482.7,996.059 1486.71,999.88 1491.73,1002.32C1496.74,1004.75 1502.67,1005.97 1509.51,1005.97C1522.17,1005.97 1535.48,1001.99 1549.45,994.02L1549.45,1017.08Z" style="fill:rgb(0,82,141);fill-rule:nonzero;stroke:rgb(0,82,141);stroke-width:2.02px;"/>
            </g>
        </g>
        <g transform="matrix(4.10956,0,0,3.96456,2862.88,3539.69)">
            <path d="M0,227.496L-20.559,237.42L-58.967,157.794C-61.345,158.205 -63.792,158.412 -66.283,158.412C-90.222,158.412 -109.626,139.004 -109.626,115.067C-109.626,102.226 -104.039,90.691 -95.167,82.757L-135.092,-0.007L-114.533,-9.924L-74.742,72.554C-72.01,72.01 -69.183,71.724 -66.283,71.724C-42.347,71.724 -22.941,91.134 -22.941,115.067C-22.941,128.325 -28.896,140.197 -38.275,148.147L0,227.496Z" style="fill:rgb(244,128,46);fill-rule:nonzero;"/>
        </g>
        <g transform="matrix(4.10956,0,0,3.96456,2418.72,3633.43)">
            <path d="M0,289.669C4.769,294.694 7.686,301.487 7.686,308.958C7.686,324.462 -4.882,337.03 -20.387,337.03C-33.703,337.03 -44.857,327.761 -47.742,315.323L-201.681,291.169C-206.786,296.503 -213.977,299.817 -221.94,299.817C-237.445,299.817 -250.02,287.245 -250.02,271.741C-250.02,264.144 -247,257.257 -242.1,252.204L-280.361,139.852C-294.808,138.696 -306.164,126.61 -306.164,111.873C-306.164,96.363 -293.597,83.794 -278.091,83.794C-274.585,83.794 -271.225,84.44 -268.129,85.613L-175.695,-11.101C-176.48,-13.689 -176.905,-16.44 -176.905,-19.289C-176.905,-34.791 -164.337,-47.361 -148.834,-47.361C-133.323,-47.361 -120.754,-34.791 -120.754,-19.289C-120.754,-19.163 -120.754,-19.035 -120.761,-18.908L-11.128,45.252L-22.34,64.41L-129.911,1.455C-134.901,6.007 -141.541,8.784 -148.834,8.784C-153.285,8.784 -157.502,7.745 -161.243,5.898L-252.182,101.048C-250.787,104.377 -250.02,108.037 -250.02,111.873C-250.02,120.167 -253.614,127.62 -259.334,132.753L-221.554,243.677C-206.836,243.872 -194.857,255.394 -193.932,269.921L-43.812,293.48C-38.826,285.944 -30.304,280.962 -20.614,280.886L13.044,156.915L34.464,162.731L0,289.669Z" style="fill:rgb(0,82,141);fill-rule:nonzero;"/>
        </g>
        <g transform="matrix(0,-3.96456,-4.10956,0,1683.56,4202.58)">
            <path d="M-6.147,-6.147C-9.543,-6.147 -12.293,-3.394 -12.293,0C-12.293,3.395 -9.543,6.147 -6.147,6.147C-2.752,6.147 -0.001,3.395 -0.001,0C-0.001,-3.394 -2.752,-6.147 -6.147,-6.147" style="fill:rgb(0,82,141);fill-rule:nonzero;"/>
        </g>
        <g transform="matrix(0,-3.96456,-4.10956,0,1596.65,3999.77)">
            <path d="M-6.146,-6.147C-9.541,-6.147 -12.293,-3.396 -12.293,-0.001C-12.293,3.393 -9.541,6.146 -6.146,6.146C-2.753,6.146 -0,3.393 -0,-0.001C-0,-3.396 -2.753,-6.147 -6.146,-6.147" style="fill:rgb(0,82,141);fill-rule:nonzero;"/>
        </g>
        <g transform="matrix(0,-3.96456,-4.10956,0,1846.7,3802.08)">
            <path d="M-6.146,-6.147C-9.541,-6.147 -12.293,-3.394 -12.293,-0C-12.293,3.396 -9.541,6.146 -6.146,6.146C-2.752,6.146 -0,3.396 -0,-0C-0,-3.394 -2.752,-6.147 -6.146,-6.147" style="fill:rgb(0,82,141);fill-rule:nonzero;"/>
        </g>
        <g transform="matrix(0,-3.96456,-4.10956,0,2130.3,3928.77)">
            <path d="M-6.146,-6.147C-9.541,-6.147 -12.293,-3.396 -12.293,-0.001C-12.293,3.394 -9.541,6.146 -6.146,6.146C-2.752,6.146 0,3.394 0,-0.001C0,-3.396 -2.752,-6.147 -6.146,-6.147" style="fill:rgb(0,82,141);fill-rule:nonzero;"/>
        </g>
        <g transform="matrix(0,-3.96456,-4.10956,0,1933.6,4081.97)">
            <path d="M-6.146,-6.147C-9.542,-6.147 -12.293,-3.396 -12.293,-0.001C-12.293,3.394 -9.542,6.146 -6.146,6.146C-2.751,6.146 0,3.394 0,-0.001C0,-3.396 -2.751,-6.147 -6.146,-6.147" style="fill:rgb(0,82,141);fill-rule:nonzero;"/>
        </g>
        <g transform="matrix(0,-3.96456,-4.10956,0,1891.91,4380.72)">
            <path d="M-6.148,-6.146C-9.541,-6.146 -12.294,-3.393 -12.294,0.001C-12.294,3.397 -9.541,6.148 -6.148,6.148C-2.753,6.148 0,3.397 0,0.001C0,-3.393 -2.753,-6.146 -6.148,-6.146" style="fill:rgb(0,82,141);fill-rule:nonzero;"/>
        </g>
        <g transform="matrix(0,-3.96456,-4.10956,0,2130.3,4342.96)">
            <path d="M-6.146,-6.147C-9.541,-6.147 -12.294,-3.396 -12.294,-0.001C-12.294,3.393 -9.541,6.146 -6.146,6.146C-2.753,6.146 0,3.393 0,-0.001C0,-3.396 -2.753,-6.147 -6.146,-6.147" style="fill:rgb(0,82,141);fill-rule:nonzero;"/>
        </g>
        <g transform="matrix(0,-3.96456,-4.10956,0,2228.98,4553.07)">
            <path d="M-6.148,-6.145C-9.541,-6.145 -12.294,-3.394 -12.294,0.001C-12.294,3.395 -9.541,6.148 -6.148,6.148C-2.753,6.148 0,3.395 0,0.001C0,-3.394 -2.753,-6.145 -6.148,-6.145" style="fill:rgb(0,82,141);fill-rule:nonzero;"/>
        </g>
        <g transform="matrix(0,-3.96456,-4.10956,0,1988.94,4619.67)">
            <path d="M-6.147,-6.147C-9.542,-6.147 -12.293,-3.394 -12.293,0C-12.293,3.396 -9.542,6.147 -6.147,6.147C-2.752,6.147 -0.001,3.396 -0.001,0C-0.001,-3.394 -2.752,-6.147 -6.147,-6.147" style="fill:rgb(0,82,141);fill-rule:nonzero;"/>
        </g>
        <g transform="matrix(0,-3.96456,-4.10956,0,2579.08,4774.66)">
            <path d="M-6.145,-6.148C-9.541,-6.148 -12.293,-3.396 -12.293,-0.002C-12.293,3.394 -9.541,6.145 -6.145,6.145C-2.752,6.145 -0,3.394 -0,-0.002C-0,-3.396 -2.752,-6.148 -6.145,-6.148" style="fill:rgb(0,82,141);fill-rule:nonzero;"/>
        </g>
        <g transform="matrix(0,-3.96456,-4.10956,0,2643.14,4551.46)">
            <path d="M-6.146,-6.148C-9.541,-6.148 -12.294,-3.395 -12.294,-0.001C-12.294,3.395 -9.541,6.146 -6.146,6.146C-2.753,6.146 0,3.395 0,-0.001C0,-3.395 -2.753,-6.148 -6.146,-6.148" style="fill:rgb(0,82,141);fill-rule:nonzero;"/>
        </g>
        <g transform="matrix(0,-3.96456,-4.10956,0,2827.51,4142.02)">
            <path d="M-6.147,-6.147C-9.541,-6.147 -12.294,-3.395 -12.294,-0.001C-12.294,3.395 -9.541,6.147 -6.147,6.147C-2.753,6.147 0,3.395 0,-0.001C0,-3.395 -2.753,-6.147 -6.147,-6.147" style="fill:rgb(0,82,141);fill-rule:nonzero;"/>
        </g>
        <g transform="matrix(0,-3.96456,-4.10956,0,2831.02,3804.7)">
            <path d="M-6.146,-6.147C-9.542,-6.147 -12.293,-3.394 -12.293,-0C-12.293,3.396 -9.542,6.146 -6.146,6.146C-2.753,6.146 -0,3.396 -0,-0C-0,-3.394 -2.753,-6.147 -6.146,-6.147" style="fill:rgb(0,82,141);fill-rule:nonzero;"/>
        </g>
        <g transform="matrix(0,-3.96456,-4.10956,0,2610.26,3591.27)">
            <path d="M-6.146,-6.147C-9.541,-6.147 -12.293,-3.395 -12.293,-0.001C-12.293,3.395 -9.541,6.146 -6.146,6.146C-2.752,6.146 -0,3.395 -0,-0.001C-0,-3.395 -2.752,-6.147 -6.146,-6.147" style="fill:rgb(0,82,141);fill-rule:nonzero;"/>
        </g>
        <g transform="matrix(0,-3.96456,-4.10956,0,2167.89,3416.7)">
            <path d="M-6.146,-6.147C-9.542,-6.147 -12.293,-3.395 -12.293,0C-12.293,3.395 -9.542,6.146 -6.146,6.146C-2.752,6.146 0,3.395 0,0C0,-3.395 -2.752,-6.147 -6.146,-6.147" style="fill:rgb(0,82,141);fill-rule:nonzero;"/>
        </g>
        <g transform="matrix(0,-3.96456,-4.10956,0,1903.63,3328.78)">
            <path d="M-6.146,-6.147C-9.541,-6.147 -12.293,-3.395 -12.293,-0.001C-12.293,3.395 -9.541,6.146 -6.146,6.146C-2.753,6.146 -0,3.395 -0,-0.001C-0,-3.395 -2.753,-6.147 -6.146,-6.147" style="fill:rgb(0,82,141);fill-rule:nonzero;"/>
        </g>
        <g transform="matrix(0,-3.96456,-4.10956,0,1630.13,3396.3)">
            <path d="M-6.146,-6.147C-9.541,-6.147 -12.293,-3.396 -12.293,-0.001C-12.293,3.393 -9.541,6.146 -6.146,6.146C-2.752,6.146 -0,3.393 -0,-0.001C-0,-3.396 -2.752,-6.147 -6.146,-6.147" style="fill:rgb(0,82,141);fill-rule:nonzero;"/>
        </g>
        <g transform="matrix(0,-3.96456,-4.10956,0,1460.24,3577.15)">
            <path d="M-6.146,-6.147C-9.542,-6.147 -12.293,-3.395 -12.293,-0.001C-12.293,3.395 -9.542,6.146 -6.146,6.146C-2.753,6.146 -0,3.395 -0,-0.001C-0,-3.395 -2.753,-6.147 -6.146,-6.147" style="fill:rgb(0,82,141);fill-rule:nonzero;"/>
        </g>
        <g transform="matrix(0,-3.96456,-4.10956,0,1276.55,3751.12)">
            <path d="M-6.146,-6.147C-9.542,-6.147 -12.293,-3.394 -12.293,-0C-12.293,3.396 -9.542,6.146 -6.146,6.146C-2.753,6.146 -0,3.396 -0,-0C-0,-3.394 -2.753,-6.147 -6.146,-6.147" style="fill:rgb(0,82,141);fill-rule:nonzero;"/>
        </g>
        <g transform="matrix(0,-3.96456,-4.10956,0,1163.24,4314.18)">
            <path d="M-6.146,-6.147C-9.541,-6.147 -12.294,-3.396 -12.294,-0.001C-12.294,3.393 -9.541,6.146 -6.146,6.146C-2.753,6.146 0,3.393 0,-0.001C0,-3.396 -2.753,-6.147 -6.146,-6.147" style="fill:rgb(0,82,141);fill-rule:nonzero;"/>
        </g>
        <g transform="matrix(0,-3.96456,-4.10956,0,1246.22,4595.89)">
            <path d="M-6.147,-6.147C-9.542,-6.147 -12.293,-3.395 -12.293,-0.001C-12.293,3.394 -9.542,6.147 -6.147,6.147C-2.752,6.147 -0.001,3.394 -0.001,-0.001C-0.001,-3.395 -2.752,-6.147 -6.147,-6.147" style="fill:rgb(0,82,141);fill-rule:nonzero;"/>
        </g>
        <g transform="matrix(0,-3.96456,-4.10956,0,1560.68,4894.18)">
            <path d="M-6.148,-6.146C-9.543,-6.146 -12.294,-3.395 -12.294,0C-12.294,3.395 -9.543,6.148 -6.148,6.148C-2.753,6.148 0,3.395 0,0C0,-3.395 -2.753,-6.146 -6.148,-6.146" style="fill:rgb(0,82,141);fill-rule:nonzero;"/>
        </g>
        <g transform="matrix(0,-3.96456,-4.10956,0,1871.36,4961.72)">
            <path d="M-6.148,-6.146C-9.541,-6.146 -12.294,-3.393 -12.294,0.001C-12.294,3.397 -9.541,6.148 -6.148,6.148C-2.753,6.148 0,3.397 0,0.001C0,-3.393 -2.753,-6.146 -6.148,-6.146" style="fill:rgb(0,82,141);fill-rule:nonzero;"/>
        </g>
        <g transform="matrix(0,-3.96456,-4.10956,0,2166.26,5004.65)">
            <path d="M-6.145,-6.148C-9.541,-6.148 -12.293,-3.397 -12.293,-0.002C-12.293,3.393 -9.541,6.145 -6.145,6.145C-2.752,6.145 0,3.393 0,-0.002C0,-3.397 -2.752,-6.148 -6.145,-6.148" style="fill:rgb(0,82,141);fill-rule:nonzero;"/>
        </g>
        <g transform="matrix(0,-3.96456,-4.10956,0,1705.92,4570.94)">
            <path d="M-6.148,-6.146C-9.541,-6.146 -12.294,-3.394 -12.294,0C-12.294,3.396 -9.541,6.148 -6.148,6.148C-2.753,6.148 0,3.396 0,0C0,-3.394 -2.753,-6.146 -6.148,-6.146" style="fill:rgb(0,82,141);fill-rule:nonzero;"/>
        </g>
        <g transform="matrix(0,-3.96456,-4.10956,0,2269.62,4171.37)">
            <path d="M-6.148,-6.145C-9.541,-6.145 -12.294,-3.393 -12.294,0.002C-12.294,3.397 -9.541,6.148 -6.148,6.148C-2.753,6.148 0,3.397 0,0.002C0,-3.393 -2.753,-6.145 -6.148,-6.145" style="fill:rgb(0,82,141);fill-rule:nonzero;"/>
        </g>
        <g transform="matrix(0,-3.96456,-4.10956,0,1565.39,4385.4)">
            <path d="M-6.146,-6.146C-9.542,-6.146 -12.293,-3.395 -12.293,-0C-12.293,3.394 -9.542,6.146 -6.146,6.146C-2.752,6.146 -0,3.394 -0,-0C-0,-3.395 -2.752,-6.146 -6.146,-6.146" style="fill:rgb(0,82,141);fill-rule:nonzero;"/>
        </g>
        <g transform="matrix(0,-3.96456,-4.10956,0,1089.88,3940.66)">
            <path d="M-6.146,-6.147C-9.541,-6.147 -12.293,-3.394 -12.293,-0C-12.293,3.396 -9.541,6.146 -6.146,6.146C-2.753,6.146 -0,3.396 -0,-0C-0,-3.394 -2.753,-6.147 -6.146,-6.147" style="fill:rgb(0,82,141);fill-rule:nonzero;"/>
        </g>
    </g>
</svg>
