<?xml version="1.0" encoding="UTF-8"?>
<svg xmlns="http://www.w3.org/2000/svg" xmlns:xlink="http://www.w3.org/1999/xlink" width="600" height="300" viewBox="0 0 600 300">
<rect x="-60" y="-30" width="720" height="360" fill="rgb(100%, 100%, 100%)" fill-opacity="1"/>
<path fill-rule="nonzero" fill="rgb(100%, 100%, 100%)" fill-opacity="1" d="M 16 284 L 193 284 L 193 16 L 16 16 Z M 16 284 "/>
<path fill-rule="nonzero" fill="rgb(100%, 100%, 100%)" fill-opacity="1" d="M 211 284 L 389 284 L 389 16 L 211 16 Z M 211 284 "/>
<path fill-rule="nonzero" fill="rgb(100%, 100%, 100%)" fill-opacity="1" d="M 407 284 L 584 284 L 584 16 L 407 16 Z M 407 284 "/>
<path fill="none" stroke-width="1.5" stroke-linecap="butt" stroke-linejoin="miter" stroke="rgb(0%, 44.705883%, 69.803923%)" stroke-opacity="1" stroke-miterlimit="2" d="M 24.046875 28.183594 L 25.671875 36.300781 L 27.296875 44.257812 L 28.921875 52.046875 L 30.546875 59.667969 L 32.171875 67.125 L 33.796875 74.417969 L 35.421875 81.542969 L 37.046875 88.503906 L 38.671875 95.300781 L 40.300781 101.929688 L 41.925781 108.390625 L 43.550781 114.6875 L 45.175781 120.820312 L 46.800781 126.785156 L 48.425781 132.585938 L 50.050781 138.222656 L 51.675781 143.691406 L 53.300781 148.992188 L 54.925781 154.128906 L 56.550781 159.101562 L 58.175781 163.910156 L 59.804688 168.546875 L 61.429688 173.023438 L 63.054688 177.332031 L 64.679688 181.476562 L 66.304688 185.453125 L 67.929688 189.265625 L 69.554688 192.910156 L 71.179688 196.390625 L 72.804688 199.703125 L 74.429688 202.851562 L 76.054688 205.835938 L 77.683594 208.652344 L 79.308594 211.304688 L 80.933594 213.789062 L 82.558594 216.109375 L 84.183594 218.265625 L 85.808594 220.253906 L 87.433594 222.078125 L 89.058594 223.734375 L 90.683594 225.226562 L 92.308594 226.550781 L 93.933594 227.710938 L 95.5625 228.707031 L 97.1875 229.535156 L 98.8125 230.195312 L 100.4375 230.695312 L 102.0625 231.027344 L 103.6875 231.191406 L 105.3125 231.191406 L 106.9375 231.027344 L 108.5625 230.695312 L 110.1875 230.195312 L 111.8125 229.535156 L 113.4375 228.707031 L 115.066406 227.710938 L 116.691406 226.550781 L 118.316406 225.226562 L 119.941406 223.734375 L 121.566406 222.078125 L 123.191406 220.253906 L 124.816406 218.265625 L 126.441406 216.109375 L 128.066406 213.789062 L 129.691406 211.304688 L 131.316406 208.652344 L 132.945312 205.835938 L 134.570312 202.851562 L 136.195312 199.703125 L 137.820312 196.390625 L 139.445312 192.910156 L 141.070312 189.265625 L 142.695312 185.453125 L 144.320312 181.476562 L 145.945312 177.332031 L 147.570312 173.023438 L 149.195312 168.546875 L 150.824219 163.910156 L 152.449219 159.101562 L 154.074219 154.128906 L 155.699219 148.992188 L 157.324219 143.691406 L 158.949219 138.222656 L 160.574219 132.585938 L 162.199219 126.785156 L 163.824219 120.820312 L 165.449219 114.6875 L 167.074219 108.390625 L 168.699219 101.929688 L 170.328125 95.300781 L 171.953125 88.503906 L 173.578125 81.542969 L 175.203125 74.417969 L 176.828125 67.125 L 178.453125 59.667969 L 180.078125 52.046875 L 181.703125 44.257812 L 183.328125 36.300781 L 184.953125 28.183594 "/>
<path fill="none" stroke-width="1.5" stroke-linecap="butt" stroke-linejoin="miter" stroke="rgb(0%, 0%, 0%)" stroke-opacity="1" stroke-miterlimit="1.154701" d="M 40.136719 121.574219 L 40.136719 80.96875 "/>
<path fill="none" stroke-width="1.5" stroke-linecap="butt" stroke-linejoin="miter" stroke="rgb(0%, 0%, 0%)" stroke-opacity="1" stroke-miterlimit="1.154701" d="M 144.726562 200.757812 L 144.726562 160.152344 "/>
<path fill="none" stroke-width="1.5" stroke-linecap="butt" stroke-linejoin="miter" stroke="rgb(0%, 0%, 0%)" stroke-opacity="1" stroke-miterlimit="1.154701" d="M 40.136719 121.574219 L 40.136719 121.574219 "/>
<path fill="none" stroke-width="1.5" stroke-linecap="butt" stroke-linejoin="miter" stroke="rgb(0%, 0%, 0%)" stroke-opacity="1" stroke-miterlimit="1.154701" d="M 40.136719 80.96875 L 40.136719 80.96875 "/>
<path fill="none" stroke-width="1.5" stroke-linecap="butt" stroke-linejoin="miter" stroke="rgb(0%, 0%, 0%)" stroke-opacity="1" stroke-miterlimit="1.154701" d="M 144.726562 200.757812 L 144.726562 200.757812 "/>
<path fill="none" stroke-width="1.5" stroke-linecap="butt" stroke-linejoin="miter" stroke="rgb(0%, 0%, 0%)" stroke-opacity="1" stroke-miterlimit="1.154701" d="M 144.726562 160.152344 L 144.726562 160.152344 "/>
<path fill="none" stroke-width="1.5" stroke-linecap="butt" stroke-linejoin="miter" stroke="rgb(0%, 44.705883%, 69.803923%)" stroke-opacity="1" stroke-miterlimit="2" d="M 24.046875 251.515625 L 184.953125 251.515625 "/>
<path fill="none" stroke-width="1.5" stroke-linecap="butt" stroke-linejoin="miter" stroke="rgb(0%, 0%, 0%)" stroke-opacity="1" stroke-miterlimit="1.154701" d="M 40.136719 271.816406 L 40.136719 231.210938 "/>
<path fill="none" stroke-width="1.5" stroke-linecap="butt" stroke-linejoin="miter" stroke="rgb(0%, 0%, 0%)" stroke-opacity="1" stroke-miterlimit="1.154701" d="M 144.726562 271.816406 L 144.726562 231.210938 "/>
<path fill="none" stroke-width="1.5" stroke-linecap="butt" stroke-linejoin="miter" stroke="rgb(0%, 0%, 0%)" stroke-opacity="1" stroke-miterlimit="1.154701" d="M 40.136719 271.816406 L 40.136719 271.816406 "/>
<path fill="none" stroke-width="1.5" stroke-linecap="butt" stroke-linejoin="miter" stroke="rgb(0%, 0%, 0%)" stroke-opacity="1" stroke-miterlimit="1.154701" d="M 40.136719 231.210938 L 40.136719 231.210938 "/>
<path fill="none" stroke-width="1.5" stroke-linecap="butt" stroke-linejoin="miter" stroke="rgb(0%, 0%, 0%)" stroke-opacity="1" stroke-miterlimit="1.154701" d="M 144.726562 271.816406 L 144.726562 271.816406 "/>
<path fill="none" stroke-width="1.5" stroke-linecap="butt" stroke-linejoin="miter" stroke="rgb(0%, 0%, 0%)" stroke-opacity="1" stroke-miterlimit="1.154701" d="M 144.726562 231.210938 L 144.726562 231.210938 "/>
<path fill="none" stroke-width="1.5" stroke-linecap="butt" stroke-linejoin="miter" stroke="rgb(0%, 44.705883%, 69.803923%)" stroke-opacity="1" stroke-miterlimit="2" d="M 219.089844 28.183594 L 220.726562 36.300781 L 222.359375 44.257812 L 223.996094 52.046875 L 225.628906 59.667969 L 227.261719 67.125 L 228.898438 74.417969 L 230.53125 81.542969 L 232.167969 88.503906 L 233.800781 95.300781 L 235.4375 101.929688 L 237.070312 108.390625 L 238.707031 114.6875 L 240.339844 120.820312 L 241.972656 126.785156 L 243.609375 132.585938 L 245.242188 138.222656 L 246.878906 143.691406 L 248.511719 148.992188 L 250.148438 154.128906 L 251.78125 159.101562 L 253.414062 163.910156 L 255.050781 168.546875 L 256.683594 173.023438 L 258.320312 177.332031 L 259.953125 181.476562 L 261.589844 185.453125 L 263.222656 189.265625 L 264.859375 192.910156 L 266.492188 196.390625 L 268.125 199.703125 L 269.761719 202.851562 L 271.394531 205.835938 L 273.03125 208.652344 L 274.664062 211.304688 L 276.300781 213.789062 L 277.933594 216.109375 L 279.570312 218.265625 L 281.203125 220.253906 L 282.835938 222.078125 L 284.472656 223.734375 L 286.105469 225.226562 L 287.742188 226.550781 L 289.375 227.710938 L 291.011719 228.707031 L 292.644531 229.535156 L 294.277344 230.195312 L 295.914062 230.695312 L 297.546875 231.027344 L 299.183594 231.191406 L 300.816406 231.191406 L 302.453125 231.027344 L 304.085938 230.695312 L 305.722656 230.195312 L 307.355469 229.535156 L 308.988281 228.707031 L 310.625 227.710938 L 312.257812 226.550781 L 313.894531 225.226562 L 315.527344 223.734375 L 317.164062 222.078125 L 318.796875 220.253906 L 320.429688 218.265625 L 322.066406 216.109375 L 323.699219 213.789062 L 325.335938 211.304688 L 326.96875 208.652344 L 328.605469 205.835938 L 330.238281 202.851562 L 331.875 199.703125 L 333.507812 196.390625 L 335.140625 192.910156 L 336.777344 189.265625 L 338.410156 185.453125 L 340.046875 181.476562 L 341.679688 177.332031 L 343.316406 173.023438 L 344.949219 168.546875 L 346.585938 163.910156 L 348.21875 159.101562 L 349.851562 154.128906 L 351.488281 148.992188 L 353.121094 143.691406 L 354.757812 138.222656 L 356.390625 132.585938 L 358.027344 126.785156 L 359.660156 120.820312 L 361.292969 114.6875 L 362.929688 108.390625 L 364.5625 101.929688 L 366.199219 95.300781 L 367.832031 88.503906 L 369.46875 81.542969 L 371.101562 74.417969 L 372.738281 67.125 L 374.371094 59.667969 L 376.003906 52.046875 L 377.640625 44.257812 L 379.273438 36.300781 L 380.910156 28.183594 "/>
<path fill="none" stroke-width="1.5" stroke-linecap="butt" stroke-linejoin="miter" stroke="rgb(0%, 0%, 0%)" stroke-opacity="1" stroke-miterlimit="1.154701" d="M 259.546875 200.757812 L 259.546875 160.152344 "/>
<path fill="none" stroke-width="1.5" stroke-linecap="butt" stroke-linejoin="miter" stroke="rgb(0%, 0%, 0%)" stroke-opacity="1" stroke-miterlimit="1.154701" d="M 364.726562 121.574219 L 364.726562 80.96875 "/>
<path fill="none" stroke-width="1.5" stroke-linecap="butt" stroke-linejoin="miter" stroke="rgb(0%, 0%, 0%)" stroke-opacity="1" stroke-miterlimit="1.154701" d="M 259.546875 200.757812 L 259.546875 200.757812 "/>
<path fill="none" stroke-width="1.5" stroke-linecap="butt" stroke-linejoin="miter" stroke="rgb(0%, 0%, 0%)" stroke-opacity="1" stroke-miterlimit="1.154701" d="M 259.546875 160.152344 L 259.546875 160.152344 "/>
<path fill="none" stroke-width="1.5" stroke-linecap="butt" stroke-linejoin="miter" stroke="rgb(0%, 0%, 0%)" stroke-opacity="1" stroke-miterlimit="1.154701" d="M 364.726562 121.574219 L 364.726562 121.574219 "/>
<path fill="none" stroke-width="1.5" stroke-linecap="butt" stroke-linejoin="miter" stroke="rgb(0%, 0%, 0%)" stroke-opacity="1" stroke-miterlimit="1.154701" d="M 364.726562 80.96875 L 364.726562 80.96875 "/>
<path fill="none" stroke-width="1.5" stroke-linecap="butt" stroke-linejoin="miter" stroke="rgb(0%, 44.705883%, 69.803923%)" stroke-opacity="1" stroke-miterlimit="2" d="M 219.089844 251.515625 L 380.910156 251.515625 "/>
<path fill="none" stroke-width="1.5" stroke-linecap="butt" stroke-linejoin="miter" stroke="rgb(0%, 0%, 0%)" stroke-opacity="1" stroke-miterlimit="1.154701" d="M 259.546875 271.816406 L 259.546875 231.210938 "/>
<path fill="none" stroke-width="1.5" stroke-linecap="butt" stroke-linejoin="miter" stroke="rgb(0%, 0%, 0%)" stroke-opacity="1" stroke-miterlimit="1.154701" d="M 364.726562 271.816406 L 364.726562 231.210938 "/>
<path fill="none" stroke-width="1.5" stroke-linecap="butt" stroke-linejoin="miter" stroke="rgb(0%, 0%, 0%)" stroke-opacity="1" stroke-miterlimit="1.154701" d="M 259.546875 271.816406 L 259.546875 271.816406 "/>
<path fill="none" stroke-width="1.5" stroke-linecap="butt" stroke-linejoin="miter" stroke="rgb(0%, 0%, 0%)" stroke-opacity="1" stroke-miterlimit="1.154701" d="M 259.546875 231.210938 L 259.546875 231.210938 "/>
<path fill="none" stroke-width="1.5" stroke-linecap="butt" stroke-linejoin="miter" stroke="rgb(0%, 0%, 0%)" stroke-opacity="1" stroke-miterlimit="1.154701" d="M 364.726562 271.816406 L 364.726562 271.816406 "/>
<path fill="none" stroke-width="1.5" stroke-linecap="butt" stroke-linejoin="miter" stroke="rgb(0%, 0%, 0%)" stroke-opacity="1" stroke-miterlimit="1.154701" d="M 364.726562 231.210938 L 364.726562 231.210938 "/>
<path fill="none" stroke-width="1.5" stroke-linecap="butt" stroke-linejoin="miter" stroke="rgb(0%, 44.705883%, 69.803923%)" stroke-opacity="1" stroke-miterlimit="2" d="M 415.046875 28.183594 L 416.671875 36.300781 L 418.296875 44.257812 L 419.921875 52.046875 L 421.546875 59.667969 L 423.171875 67.125 L 424.796875 74.417969 L 426.421875 81.542969 L 428.046875 88.503906 L 429.671875 95.300781 L 431.300781 101.929688 L 432.925781 108.390625 L 434.550781 114.6875 L 436.175781 120.820312 L 437.800781 126.785156 L 439.425781 132.585938 L 441.050781 138.222656 L 442.675781 143.691406 L 444.300781 148.992188 L 445.925781 154.128906 L 447.550781 159.101562 L 449.175781 163.910156 L 450.804688 168.546875 L 452.429688 173.023438 L 454.054688 177.332031 L 455.679688 181.476562 L 457.304688 185.453125 L 458.929688 189.265625 L 460.554688 192.910156 L 462.179688 196.390625 L 463.804688 199.703125 L 465.429688 202.851562 L 467.054688 205.835938 L 468.683594 208.652344 L 470.308594 211.304688 L 471.933594 213.789062 L 473.558594 216.109375 L 475.183594 218.265625 L 476.808594 220.253906 L 478.433594 222.078125 L 480.058594 223.734375 L 481.683594 225.226562 L 483.308594 226.550781 L 484.933594 227.710938 L 486.5625 228.707031 L 488.1875 229.535156 L 489.8125 230.195312 L 491.4375 230.695312 L 493.0625 231.027344 L 494.6875 231.191406 L 496.3125 231.191406 L 497.9375 231.027344 L 499.5625 230.695312 L 501.1875 230.195312 L 502.8125 229.535156 L 504.4375 228.707031 L 506.066406 227.710938 L 507.691406 226.550781 L 509.316406 225.226562 L 510.941406 223.734375 L 512.566406 222.078125 L 514.191406 220.253906 L 515.816406 218.265625 L 517.441406 216.109375 L 519.066406 213.789062 L 520.691406 211.304688 L 522.316406 208.652344 L 523.945312 205.835938 L 525.570312 202.851562 L 527.195312 199.703125 L 528.820312 196.390625 L 530.445312 192.910156 L 532.070312 189.265625 L 533.695312 185.453125 L 535.320312 181.476562 L 536.945312 177.332031 L 538.570312 173.023438 L 540.195312 168.546875 L 541.824219 163.910156 L 543.449219 159.101562 L 545.074219 154.128906 L 546.699219 148.992188 L 548.324219 143.691406 L 549.949219 138.222656 L 551.574219 132.585938 L 553.199219 126.785156 L 554.824219 120.820312 L 556.449219 114.6875 L 558.074219 108.390625 L 559.699219 101.929688 L 561.328125 95.300781 L 562.953125 88.503906 L 564.578125 81.542969 L 566.203125 74.417969 L 567.828125 67.125 L 569.453125 59.667969 L 571.078125 52.046875 L 572.703125 44.257812 L 574.328125 36.300781 L 575.953125 28.183594 "/>
<path fill="none" stroke-width="1.5" stroke-linecap="butt" stroke-linejoin="miter" stroke="rgb(0%, 0%, 0%)" stroke-opacity="1" stroke-miterlimit="1.154701" d="M 455.273438 200.757812 L 455.273438 160.152344 "/>
<path fill="none" stroke-width="1.5" stroke-linecap="butt" stroke-linejoin="miter" stroke="rgb(0%, 0%, 0%)" stroke-opacity="1" stroke-miterlimit="1.154701" d="M 535.726562 200.757812 L 535.726562 160.152344 "/>
<path fill="none" stroke-width="1.5" stroke-linecap="butt" stroke-linejoin="miter" stroke="rgb(0%, 0%, 0%)" stroke-opacity="1" stroke-miterlimit="1.154701" d="M 455.273438 200.757812 L 455.273438 200.757812 "/>
<path fill="none" stroke-width="1.5" stroke-linecap="butt" stroke-linejoin="miter" stroke="rgb(0%, 0%, 0%)" stroke-opacity="1" stroke-miterlimit="1.154701" d="M 455.273438 160.152344 L 455.273438 160.152344 "/>
<path fill="none" stroke-width="1.5" stroke-linecap="butt" stroke-linejoin="miter" stroke="rgb(0%, 0%, 0%)" stroke-opacity="1" stroke-miterlimit="1.154701" d="M 535.726562 200.757812 L 535.726562 200.757812 "/>
<path fill="none" stroke-width="1.5" stroke-linecap="butt" stroke-linejoin="miter" stroke="rgb(0%, 0%, 0%)" stroke-opacity="1" stroke-miterlimit="1.154701" d="M 535.726562 160.152344 L 535.726562 160.152344 "/>
<path fill="none" stroke-width="1.5" stroke-linecap="butt" stroke-linejoin="miter" stroke="rgb(0%, 44.705883%, 69.803923%)" stroke-opacity="1" stroke-miterlimit="2" d="M 415.046875 251.515625 L 575.953125 251.515625 "/>
<path fill="none" stroke-width="1.5" stroke-linecap="butt" stroke-linejoin="miter" stroke="rgb(0%, 0%, 0%)" stroke-opacity="1" stroke-miterlimit="1.154701" d="M 455.273438 271.816406 L 455.273438 231.210938 "/>
<path fill="none" stroke-width="1.5" stroke-linecap="butt" stroke-linejoin="miter" stroke="rgb(0%, 0%, 0%)" stroke-opacity="1" stroke-miterlimit="1.154701" d="M 535.726562 271.816406 L 535.726562 231.210938 "/>
<path fill="none" stroke-width="1.5" stroke-linecap="butt" stroke-linejoin="miter" stroke="rgb(0%, 0%, 0%)" stroke-opacity="1" stroke-miterlimit="1.154701" d="M 455.273438 271.816406 L 455.273438 271.816406 "/>
<path fill="none" stroke-width="1.5" stroke-linecap="butt" stroke-linejoin="miter" stroke="rgb(0%, 0%, 0%)" stroke-opacity="1" stroke-miterlimit="1.154701" d="M 455.273438 231.210938 L 455.273438 231.210938 "/>
<path fill="none" stroke-width="1.5" stroke-linecap="butt" stroke-linejoin="miter" stroke="rgb(0%, 0%, 0%)" stroke-opacity="1" stroke-miterlimit="1.154701" d="M 535.726562 271.816406 L 535.726562 271.816406 "/>
<path fill="none" stroke-width="1.5" stroke-linecap="butt" stroke-linejoin="miter" stroke="rgb(0%, 0%, 0%)" stroke-opacity="1" stroke-miterlimit="1.154701" d="M 535.726562 231.210938 L 535.726562 231.210938 "/>
</svg>
