<?xml version="1.0" encoding="UTF-8"?>
<svg xmlns="http://www.w3.org/2000/svg" xmlns:xlink="http://www.w3.org/1999/xlink" width="600" height="300" viewBox="0 0 600 300">
<rect x="-60" y="-30" width="720" height="360" fill="rgb(100%, 100%, 100%)" fill-opacity="1"/>
<path fill-rule="nonzero" fill="rgb(100%, 100%, 100%)" fill-opacity="1" d="M 16 284 L 193 284 L 193 16 L 16 16 Z M 16 284 "/>
<path fill-rule="nonzero" fill="rgb(100%, 100%, 100%)" fill-opacity="1" d="M 211 284 L 389 284 L 389 16 L 211 16 Z M 211 284 "/>
<path fill-rule="nonzero" fill="rgb(100%, 100%, 100%)" fill-opacity="1" d="M 407 284 L 584 284 L 584 16 L 407 16 Z M 407 284 "/>
<path fill="none" stroke-width="1.5" stroke-linecap="butt" stroke-linejoin="miter" stroke="rgb(0%, 44.705883%, 69.803923%)" stroke-opacity="1" stroke-miterlimit="2" d="M 24.046875 28.183594 L 25.671875 37.039062 L 27.296875 45.71875 L 28.921875 54.214844 L 30.546875 62.53125 L 32.171875 70.667969 L 33.796875 78.621094 L 35.421875 86.394531 L 37.046875 93.988281 L 38.671875 101.402344 L 40.300781 108.632812 L 41.925781 115.683594 L 43.550781 122.554688 L 45.175781 129.242188 L 46.800781 135.75 L 48.425781 142.078125 L 50.050781 148.226562 L 51.675781 154.191406 L 53.300781 159.976562 L 54.925781 165.582031 L 56.550781 171.003906 L 58.175781 176.246094 L 59.804688 181.308594 L 61.429688 186.191406 L 63.054688 190.890625 L 64.679688 195.410156 L 66.304688 199.75 L 67.929688 203.90625 L 69.554688 207.886719 L 71.179688 211.679688 L 72.804688 215.296875 L 74.429688 218.730469 L 76.054688 221.984375 L 77.683594 225.058594 L 79.308594 227.953125 L 80.933594 230.664062 L 82.558594 233.195312 L 84.183594 235.546875 L 85.808594 237.714844 L 87.433594 239.703125 L 89.058594 241.511719 L 90.683594 243.136719 L 92.308594 244.585938 L 93.933594 245.851562 L 95.5625 246.933594 L 97.1875 247.839844 L 98.8125 248.5625 L 100.4375 249.105469 L 102.0625 249.464844 L 103.6875 249.648438 L 105.3125 249.648438 L 106.9375 249.464844 L 108.5625 249.105469 L 110.1875 248.5625 L 111.8125 247.839844 L 113.4375 246.933594 L 115.066406 245.851562 L 116.691406 244.585938 L 118.316406 243.136719 L 119.941406 241.511719 L 121.566406 239.703125 L 123.191406 237.714844 L 124.816406 235.546875 L 126.441406 233.195312 L 128.066406 230.664062 L 129.691406 227.953125 L 131.316406 225.058594 L 132.945312 221.984375 L 134.570312 218.730469 L 136.195312 215.296875 L 137.820312 211.679688 L 139.445312 207.886719 L 141.070312 203.90625 L 142.695312 199.75 L 144.320312 195.410156 L 145.945312 190.890625 L 147.570312 186.191406 L 149.195312 181.308594 L 150.824219 176.246094 L 152.449219 171.003906 L 154.074219 165.582031 L 155.699219 159.976562 L 157.324219 154.191406 L 158.949219 148.226562 L 160.574219 142.078125 L 162.199219 135.75 L 163.824219 129.242188 L 165.449219 122.554688 L 167.074219 115.683594 L 168.699219 108.632812 L 170.328125 101.402344 L 171.953125 93.988281 L 173.578125 86.394531 L 175.203125 78.621094 L 176.828125 70.667969 L 178.453125 62.53125 L 180.078125 54.214844 L 181.703125 45.71875 L 183.328125 37.039062 L 184.953125 28.183594 "/>
<path fill="none" stroke-width="1.5" stroke-linecap="butt" stroke-linejoin="miter" stroke="rgb(100%, 0%, 0%)" stroke-opacity="1" stroke-dasharray="1.5 3" stroke-miterlimit="1.154701" d="M 40.136719 270.601562 L 40.136719 112.480469 "/>
<path fill="none" stroke-width="1.5" stroke-linecap="butt" stroke-linejoin="miter" stroke="rgb(100%, 0%, 0%)" stroke-opacity="1" stroke-dasharray="1.5 3" stroke-miterlimit="1.154701" d="M 144.726562 270.601562 L 144.726562 176.800781 "/>
<path fill="none" stroke-width="1.5" stroke-linecap="butt" stroke-linejoin="miter" stroke="rgb(0%, 0%, 0%)" stroke-opacity="1" stroke-miterlimit="1.154701" d="M 40.136719 130.066406 L 40.136719 85.769531 "/>
<path fill="none" stroke-width="1.5" stroke-linecap="butt" stroke-linejoin="miter" stroke="rgb(0%, 0%, 0%)" stroke-opacity="1" stroke-miterlimit="1.154701" d="M 144.726562 216.445312 L 144.726562 172.148438 "/>
<path fill="none" stroke-width="1.5" stroke-linecap="butt" stroke-linejoin="miter" stroke="rgb(0%, 0%, 0%)" stroke-opacity="1" stroke-miterlimit="1.154701" d="M 40.136719 130.066406 L 40.136719 130.066406 "/>
<path fill="none" stroke-width="1.5" stroke-linecap="butt" stroke-linejoin="miter" stroke="rgb(0%, 0%, 0%)" stroke-opacity="1" stroke-miterlimit="1.154701" d="M 40.136719 85.769531 L 40.136719 85.769531 "/>
<path fill="none" stroke-width="1.5" stroke-linecap="butt" stroke-linejoin="miter" stroke="rgb(0%, 0%, 0%)" stroke-opacity="1" stroke-miterlimit="1.154701" d="M 144.726562 216.445312 L 144.726562 216.445312 "/>
<path fill="none" stroke-width="1.5" stroke-linecap="butt" stroke-linejoin="miter" stroke="rgb(0%, 0%, 0%)" stroke-opacity="1" stroke-miterlimit="1.154701" d="M 144.726562 172.148438 L 144.726562 172.148438 "/>
<path fill="none" stroke-width="1.5" stroke-linecap="butt" stroke-linejoin="miter" stroke="rgb(0%, 44.705883%, 69.803923%)" stroke-opacity="1" stroke-miterlimit="2" d="M 24.046875 271.816406 L 184.953125 271.816406 "/>
<path fill="none" stroke-width="1.5" stroke-linecap="butt" stroke-linejoin="miter" stroke="rgb(0%, 44.705883%, 69.803923%)" stroke-opacity="1" stroke-miterlimit="2" d="M 219.089844 28.183594 L 220.726562 37.039062 L 222.359375 45.71875 L 223.996094 54.214844 L 225.628906 62.53125 L 227.261719 70.667969 L 228.898438 78.621094 L 230.53125 86.394531 L 232.167969 93.988281 L 233.800781 101.402344 L 235.4375 108.632812 L 237.070312 115.683594 L 238.707031 122.554688 L 240.339844 129.242188 L 241.972656 135.75 L 243.609375 142.078125 L 245.242188 148.226562 L 246.878906 154.191406 L 248.511719 159.976562 L 250.148438 165.582031 L 251.78125 171.003906 L 253.414062 176.246094 L 255.050781 181.308594 L 256.683594 186.191406 L 258.320312 190.890625 L 259.953125 195.410156 L 261.589844 199.75 L 263.222656 203.90625 L 264.859375 207.886719 L 266.492188 211.679688 L 268.125 215.296875 L 269.761719 218.730469 L 271.394531 221.984375 L 273.03125 225.058594 L 274.664062 227.953125 L 276.300781 230.664062 L 277.933594 233.195312 L 279.570312 235.546875 L 281.203125 237.714844 L 282.835938 239.703125 L 284.472656 241.511719 L 286.105469 243.136719 L 287.742188 244.585938 L 289.375 245.851562 L 291.011719 246.933594 L 292.644531 247.839844 L 294.277344 248.5625 L 295.914062 249.105469 L 297.546875 249.464844 L 299.183594 249.648438 L 300.816406 249.648438 L 302.453125 249.464844 L 304.085938 249.105469 L 305.722656 248.5625 L 307.355469 247.839844 L 308.988281 246.933594 L 310.625 245.851562 L 312.257812 244.585938 L 313.894531 243.136719 L 315.527344 241.511719 L 317.164062 239.703125 L 318.796875 237.714844 L 320.429688 235.546875 L 322.066406 233.195312 L 323.699219 230.664062 L 325.335938 227.953125 L 326.96875 225.058594 L 328.605469 221.984375 L 330.238281 218.730469 L 331.875 215.296875 L 333.507812 211.679688 L 335.140625 207.886719 L 336.777344 203.90625 L 338.410156 199.75 L 340.046875 195.410156 L 341.679688 190.890625 L 343.316406 186.191406 L 344.949219 181.308594 L 346.585938 176.246094 L 348.21875 171.003906 L 349.851562 165.582031 L 351.488281 159.976562 L 353.121094 154.191406 L 354.757812 148.226562 L 356.390625 142.078125 L 358.027344 135.75 L 359.660156 129.242188 L 361.292969 122.554688 L 362.929688 115.683594 L 364.5625 108.632812 L 366.199219 101.402344 L 367.832031 93.988281 L 369.46875 86.394531 L 371.101562 78.621094 L 372.738281 70.667969 L 374.371094 62.53125 L 376.003906 54.214844 L 377.640625 45.71875 L 379.273438 37.039062 L 380.910156 28.183594 "/>
<path fill="none" stroke-width="1.5" stroke-linecap="butt" stroke-linejoin="miter" stroke="rgb(0%, 0%, 0%)" stroke-opacity="1" stroke-miterlimit="1.154701" d="M 259.546875 216.445312 L 259.546875 172.148438 "/>
<path fill="none" stroke-width="1.5" stroke-linecap="butt" stroke-linejoin="miter" stroke="rgb(0%, 0%, 0%)" stroke-opacity="1" stroke-miterlimit="1.154701" d="M 364.726562 130.066406 L 364.726562 85.769531 "/>
<path fill="none" stroke-width="1.5" stroke-linecap="butt" stroke-linejoin="miter" stroke="rgb(0%, 0%, 0%)" stroke-opacity="1" stroke-miterlimit="1.154701" d="M 259.546875 216.445312 L 259.546875 216.445312 "/>
<path fill="none" stroke-width="1.5" stroke-linecap="butt" stroke-linejoin="miter" stroke="rgb(0%, 0%, 0%)" stroke-opacity="1" stroke-miterlimit="1.154701" d="M 259.546875 172.148438 L 259.546875 172.148438 "/>
<path fill="none" stroke-width="1.5" stroke-linecap="butt" stroke-linejoin="miter" stroke="rgb(0%, 0%, 0%)" stroke-opacity="1" stroke-miterlimit="1.154701" d="M 364.726562 130.066406 L 364.726562 130.066406 "/>
<path fill="none" stroke-width="1.5" stroke-linecap="butt" stroke-linejoin="miter" stroke="rgb(0%, 0%, 0%)" stroke-opacity="1" stroke-miterlimit="1.154701" d="M 364.726562 85.769531 L 364.726562 85.769531 "/>
<path fill="none" stroke-width="1.5" stroke-linecap="butt" stroke-linejoin="miter" stroke="rgb(0%, 44.705883%, 69.803923%)" stroke-opacity="1" stroke-miterlimit="2" d="M 219.089844 271.816406 L 380.910156 271.816406 "/>
<path fill="none" stroke-width="1.5" stroke-linecap="butt" stroke-linejoin="miter" stroke="rgb(100%, 0%, 0%)" stroke-opacity="1" stroke-dasharray="1.5 3" stroke-miterlimit="1.154701" d="M 259.546875 270.601562 L 259.546875 217 "/>
<path fill="none" stroke-width="1.5" stroke-linecap="butt" stroke-linejoin="miter" stroke="rgb(100%, 0%, 0%)" stroke-opacity="1" stroke-dasharray="1.5 3" stroke-miterlimit="1.154701" d="M 364.726562 270.601562 L 364.726562 112.480469 "/>
<path fill="none" stroke-width="1.5" stroke-linecap="butt" stroke-linejoin="miter" stroke="rgb(0%, 44.705883%, 69.803923%)" stroke-opacity="1" stroke-miterlimit="2" d="M 415.046875 28.183594 L 416.671875 37.039062 L 418.296875 45.71875 L 419.921875 54.214844 L 421.546875 62.53125 L 423.171875 70.667969 L 424.796875 78.621094 L 426.421875 86.394531 L 428.046875 93.988281 L 429.671875 101.402344 L 431.300781 108.632812 L 432.925781 115.683594 L 434.550781 122.554688 L 436.175781 129.242188 L 437.800781 135.75 L 439.425781 142.078125 L 441.050781 148.226562 L 442.675781 154.191406 L 444.300781 159.976562 L 445.925781 165.582031 L 447.550781 171.003906 L 449.175781 176.246094 L 450.804688 181.308594 L 452.429688 186.191406 L 454.054688 190.890625 L 455.679688 195.410156 L 457.304688 199.75 L 458.929688 203.90625 L 460.554688 207.886719 L 462.179688 211.679688 L 463.804688 215.296875 L 465.429688 218.730469 L 467.054688 221.984375 L 468.683594 225.058594 L 470.308594 227.953125 L 471.933594 230.664062 L 473.558594 233.195312 L 475.183594 235.546875 L 476.808594 237.714844 L 478.433594 239.703125 L 480.058594 241.511719 L 481.683594 243.136719 L 483.308594 244.585938 L 484.933594 245.851562 L 486.5625 246.933594 L 488.1875 247.839844 L 489.8125 248.5625 L 491.4375 249.105469 L 493.0625 249.464844 L 494.6875 249.648438 L 496.3125 249.648438 L 497.9375 249.464844 L 499.5625 249.105469 L 501.1875 248.5625 L 502.8125 247.839844 L 504.4375 246.933594 L 506.066406 245.851562 L 507.691406 244.585938 L 509.316406 243.136719 L 510.941406 241.511719 L 512.566406 239.703125 L 514.191406 237.714844 L 515.816406 235.546875 L 517.441406 233.195312 L 519.066406 230.664062 L 520.691406 227.953125 L 522.316406 225.058594 L 523.945312 221.984375 L 525.570312 218.730469 L 527.195312 215.296875 L 528.820312 211.679688 L 530.445312 207.886719 L 532.070312 203.90625 L 533.695312 199.75 L 535.320312 195.410156 L 536.945312 190.890625 L 538.570312 186.191406 L 540.195312 181.308594 L 541.824219 176.246094 L 543.449219 171.003906 L 545.074219 165.582031 L 546.699219 159.976562 L 548.324219 154.191406 L 549.949219 148.226562 L 551.574219 142.078125 L 553.199219 135.75 L 554.824219 129.242188 L 556.449219 122.554688 L 558.074219 115.683594 L 559.699219 108.632812 L 561.328125 101.402344 L 562.953125 93.988281 L 564.578125 86.394531 L 566.203125 78.621094 L 567.828125 70.667969 L 569.453125 62.53125 L 571.078125 54.214844 L 572.703125 45.71875 L 574.328125 37.039062 L 575.953125 28.183594 "/>
<path fill="none" stroke-width="1.5" stroke-linecap="butt" stroke-linejoin="miter" stroke="rgb(0%, 0%, 0%)" stroke-opacity="1" stroke-miterlimit="1.154701" d="M 455.273438 216.445312 L 455.273438 172.148438 "/>
<path fill="none" stroke-width="1.5" stroke-linecap="butt" stroke-linejoin="miter" stroke="rgb(0%, 0%, 0%)" stroke-opacity="1" stroke-miterlimit="1.154701" d="M 535.726562 216.445312 L 535.726562 172.148438 "/>
<path fill="none" stroke-width="1.5" stroke-linecap="butt" stroke-linejoin="miter" stroke="rgb(0%, 0%, 0%)" stroke-opacity="1" stroke-miterlimit="1.154701" d="M 455.273438 216.445312 L 455.273438 216.445312 "/>
<path fill="none" stroke-width="1.5" stroke-linecap="butt" stroke-linejoin="miter" stroke="rgb(0%, 0%, 0%)" stroke-opacity="1" stroke-miterlimit="1.154701" d="M 455.273438 172.148438 L 455.273438 172.148438 "/>
<path fill="none" stroke-width="1.5" stroke-linecap="butt" stroke-linejoin="miter" stroke="rgb(0%, 0%, 0%)" stroke-opacity="1" stroke-miterlimit="1.154701" d="M 535.726562 216.445312 L 535.726562 216.445312 "/>
<path fill="none" stroke-width="1.5" stroke-linecap="butt" stroke-linejoin="miter" stroke="rgb(0%, 0%, 0%)" stroke-opacity="1" stroke-miterlimit="1.154701" d="M 535.726562 172.148438 L 535.726562 172.148438 "/>
<path fill="none" stroke-width="1.5" stroke-linecap="butt" stroke-linejoin="miter" stroke="rgb(0%, 44.705883%, 69.803923%)" stroke-opacity="1" stroke-miterlimit="2" d="M 415.046875 271.816406 L 575.953125 271.816406 "/>
<path fill="none" stroke-width="1.5" stroke-linecap="butt" stroke-linejoin="miter" stroke="rgb(100%, 0%, 0%)" stroke-opacity="1" stroke-dasharray="1.5 3" stroke-miterlimit="1.154701" d="M 455.273438 270.601562 L 455.273438 217 "/>
<path fill="none" stroke-width="1.5" stroke-linecap="butt" stroke-linejoin="miter" stroke="rgb(100%, 0%, 0%)" stroke-opacity="1" stroke-dasharray="1.5 3" stroke-miterlimit="1.154701" d="M 535.726562 270.601562 L 535.726562 217 "/>
</svg>
